PathFileType	4	(X/Y/Z)	C:/Users/beibeiliu/ov580/test_trc/User3\sequence.36_training_dense_left.trc
DataRate	CameraRate	NumFrames	NumMarkers	Units	OrigDataRate	OrigDataStartFrame	OrigNumFrames
120	120	23	19	mm	120	95	252
Frame#	Time	ThumbCMC			ThumbMCP			ThumbIP			ThumbTip			IndexMCP			IndexPIP			IndexTip			MiddleMCP			MiddlePIP			MiddleTip			RingMCP			RingPIP			RingTip			PinkyMCP			PinkyPIP			PinkyTip			BackHand1			BackHand2			BackHand3	
		X0	Y0	Z0	X1	Y1	Z1	X2	Y2	Z2	X3	Y3	Z3	X4	Y4	Z4	X5	Y5	Z5	X6	Y6	Z6	X7	Y7	Z7	X8	Y8	Z8	X9	Y9	Z9	X10	Y10	Z10	X11	Y11	Z11	X12	Y12	Z12	X13	Y13	Z13	X14	Y14	Z14	X15	Y15	Z15	X16	Y16	Z16	X17	Y17	Z17	X18	Y18	Z18	
94	0.783333	-159.336	2.90751	21.6616	-132.535	1.33136	-2.25132	-116.884	-7.86081	-28.7755	-110.002	-22.1126	-43.0377	-162.306	-14.5672	-57.2904	-146.373	-30.7782	-75.7496	-121.134	-45.2384	-76.0869	-173.877	-32.988	-61.7298	-150.835	-49.5521	-77.5184	-122.695	-72.4517	-66.1625	-176.136	-56.6011	-45.7292	-151.607	-70.8876	-48.3649	-129.236	-77.1967	-20.2841	-180.525	-68.2089	-28.7563	-158.326	-82.5359	-23.5393	-142.148	-72.3178	3.27937	-206.604	-28.4185	-2.32849	-214.738	-23.4733	25.7509	-194.688	-1.98673	7.97218	
95	0.791667	-161.678	-2.96619	29.0035	-135.908	-7.1257	8.81129	-122.754	-18.5652	-18.4542	-110.127	-31.9669	-33.0654	-165.695	-23.1352	-50.0384	-147.859	-41.0189	-66.8501	-123.631	-60.3256	-64.5708	-180.631	-41.8857	-52.5655	-159.455	-55.8192	-67.6485	-130.94	-80.9476	-54.2447	-183.356	-63.3829	-36.861	-161.558	-79.2319	-38.7125	-140.951	-84.9434	-13.4032	-191.875	-75.9366	-18.2738	-162.338	-86.8393	-10.9132	-152.353	-74.7134	12.3717	-214.821	-33.315	2.15932	-217.43	-26.0128	34.0847	-195.581	-0.919779	13.9053	
96	0.8	-164.267	-8.42238	34.4963	-142.154	-16.238	12.8666	-122.335	-26.2427	-12.6331	-117.289	-42.7197	-27.2569	-169.917	-28.2974	-40.2268	-149.316	-44.8256	-59.5759	-128.239	-68.2858	-56.942	-186.465	-46.3014	-41.5158	-165.086	-67.1941	-58.7965	-138.929	-87.3059	-46.6028	-188.731	-64.9017	-30.6139	-165.501	-85.8166	-30.6956	-149.065	-90.7148	-3.67512	-195.443	-79.6885	-13.5506	-171.299	-90.7639	-4.6416	-163.165	-83.1408	21.5468	-219.916	-36.7912	10.0736	-226.685	-29.2512	38.38	-197.729	-5.5464	23.7073	
97	0.808333	-169.011	-13.8038	40.7689	-145.243	-21.5547	19.7858	-131.008	-33.6496	-2.32821	-121.36	-50.1931	-23.4609	-175.541	-30.8818	-33.3695	-154.456	-52.1899	-54.2606	-133.276	-73.9384	-51.1151	-193.25	-52.5165	-36.1764	-169.54	-72.8837	-53.1353	-143.381	-93.2761	-39.3826	-196.089	-69.6378	-24.2969	-176.016	-92.8761	-24.0063	-156.94	-97.6296	2.74759	-203.931	-83.4967	-7.22998	-178.128	-95.5675	-0.277431	-167.839	-87.9028	27.2039	-223.744	-36.238	15.1657	-230.108	-32.0733	48.7687	-203.902	-11.9971	25.7805	
98	0.816667	-171.607	-14.6728	44.2887	-146.935	-23.939	23.7488	-133.876	-38.2401	-3.24937	-129.664	-54.8204	-17.9052	-183.176	-38.0336	-29.5286	-162.604	-57.4019	-50.2342	-142.959	-77.4346	-49.561	-198.429	-56.0043	-33.0165	-178.805	-73.6416	-49.5226	-150.102	-100.064	-35.5013	-203.421	-75.5639	-19.3055	-184.608	-97.0271	-20.5142	-163.024	-102.36	3.01527	-210.623	-87.058	-2.09547	-186.067	-99.9764	2.39752	-172.282	-94.1154	30.0031	-229.312	-42.1662	19.8701	-235.248	-36.0129	53.235	-206.808	-13.604	34.0475	
99	0.825	-178.118	-21.1632	42.9191	-153.798	-28.3736	22.0443	-138.093	-40.0917	0.732177	-132.115	-57.4303	-15.0081	-188.397	-43.4229	-29.9986	-172.141	-58.6684	-48.6712	-149.344	-81.6511	-48.4902	-205.025	-59.3769	-29.9978	-182.469	-79.8805	-47.8197	-154.797	-103.709	-34.747	-208.428	-81.1278	-17.3297	-186.479	-99.1848	-19.424	-165.217	-105.037	4.2715	-217.342	-87.9294	0.969998	-194.128	-105.11	2.3185	-178.168	-99.9652	25.9584	-236.556	-45.9533	24.5415	-238.305	-38.4972	53.032	-215.434	-17.5103	36.1592	
100	0.833333	-182.465	-23.7084	49.1061	-156.958	-30.2967	23.0507	-143.351	-42.5043	2.02248	-134.921	-58.4648	-15.4412	-192.858	-45.5393	-27.1783	-177.755	-62.8837	-46.5389	-154.837	-87.8019	-46.9732	-208.597	-65.3833	-32.3809	-189.604	-83.4443	-46.8794	-159.09	-105.958	-34.3386	-213.892	-81.735	-14.1816	-191.309	-102.201	-18.1943	-168.991	-110.43	8.03832	-222.413	-96.7697	3.11808	-197.828	-108.549	3.20751	-180.443	-104.927	27.3557	-240.1	-50.1813	25.5524	-240.892	-40.0382	58.1086	-215.972	-21.2518	35.8313	
101	0.841667	-184.202	-25.5228	43.5331	-164.077	-34.8652	25.2339	-149.918	-46.7551	1.71755	-140.39	-61.1507	-15.4432	-195.77	-48.7808	-27.4815	-179.847	-65.209	-45.6688	-158.141	-92.6952	-45.4937	-212.446	-65.7548	-27.8707	-191.7	-89.8556	-45.1786	-167.477	-110.992	-33.3608	-216.303	-85.1238	-14.4016	-193.386	-109.158	-14.3409	-173.202	-113.453	8.59435	-225.446	-99.1214	4.1619	-201.779	-110.61	4.1218	-182.878	-107.798	30.3056	-243.324	-51.2752	26.6567	-245.083	-45.6811	54.8508	-220.367	-22.7534	32.1964	
102	0.85	-186.428	-26.2275	43.4167	-164.59	-34.7734	21.096	-151.242	-47.5312	1.02553	-142.783	-63.4874	-16.5186	-197.023	-50.9321	-30.5349	-180.565	-68.4992	-46.889	-162.888	-91.2427	-45.9649	-216.002	-70.5595	-30.0464	-193.124	-87.6592	-46.5208	-168.139	-112.074	-33.4678	-220.052	-89.6806	-12.0393	-194.431	-109.182	-14.5904	-175.479	-115.88	10.4751	-226.818	-98.7043	5.47117	-200.665	-112.163	5.92508	-184.503	-109.989	31.4477	-245.892	-55.5947	26.5081	-245.433	-45.0976	54.2611	-225.053	-27.2754	33.1525	
103	0.858333	-189.5	-30.5747	44.8352	-167.617	-36.4962	23.9659	-149.964	-47.3311	1.26535	-142.751	-63.6825	-17.2411	-200.911	-53.0441	-28.7187	-182.876	-71.5653	-47.0471	-160.916	-92.9733	-45.2237	-216.482	-70.3342	-29.4718	-195.409	-92.1927	-45.53	-170.404	-111.129	-34.5009	-219.141	-88.3985	-13.4516	-196.468	-109.203	-15.1686	-175.899	-114.937	12.0467	-227.182	-101.223	3.79358	-201.393	-113.089	6.44405	-183.449	-109.117	31.2765	-245.768	-56.8434	26.3657	-247.244	-46.84	54.4558	-225.659	-29.191	34.1268	
104	0.866667	-190.037	-29.9532	47.7918	-168.242	-38.2635	23.3152	-149.812	-48.6367	1.52793	-142.245	-64.8934	-18.466	-200.368	-52.7576	-28.3171	-182.975	-73.6709	-46.4471	-162.131	-96.3867	-44.2914	-218.114	-72.5113	-28.1328	-197.516	-91.7371	-45.2027	-168.293	-114.594	-30.6116	-219.45	-92.678	-14.2245	-198.394	-109.966	-15.2703	-176.148	-114.527	11.7903	-229.374	-100.149	6.82491	-203.507	-114.308	7.12438	-186.583	-112.374	32.1197	-248.845	-57.4304	26.708	-251.972	-47.5202	59.7694	-223.221	-27.8188	36.8983	
105	0.875	-191.59	-30.7978	45.0539	-167.898	-37.6275	25.9547	-153.953	-50.1383	2.16705	-142.995	-61.7285	-11.1565	-198.391	-51.5441	-26.997	-185.063	-70.798	-44.5753	-159.207	-93.5236	-44.4703	-215.349	-68.4282	-28.4239	-197.824	-89.4401	-45.0865	-168.351	-112.493	-33.0182	-221.797	-88.5815	-10.3559	-194.879	-110.65	-14.0469	-174.834	-115.563	13.8347	-228.925	-104.369	7.14932	-204.45	-117.129	8.2805	-186.422	-109.745	28.9507	-245.584	-54.8895	27.7774	-249.74	-45.9851	58.9573	-226.346	-32.1772	34.2871	
106	0.883333	-188.149	-27.2248	46.886	-164.692	-34.8887	28.2608	-151.199	-48.787	2.84045	-142.124	-64.4805	-15.5431	-197.353	-53.0814	-28.9535	-180.628	-69.9759	-45.5568	-159.853	-91.5028	-43.9077	-215.567	-70.9619	-30.7758	-196.514	-89.4762	-44.4636	-169.405	-114.895	-32.168	-220.72	-88.3326	-11.0995	-199.077	-111.185	-13.6862	-178.499	-117.876	10.4519	-224.89	-103.179	4.18464	-204.085	-119.047	9.85193	-185.388	-110.838	35.358	-246.591	-58.7459	27.1167	-249.853	-47.5519	60.1453	-223.897	-27.8775	36.8387	
107	0.891667	-189.999	-29.3092	48.9839	-166.667	-37.1479	24.0043	-152.028	-47.8748	4.91079	-140.641	-61.2723	-14.1885	-197.314	-49.6364	-26.0517	-180.831	-68.8779	-44.8624	-160.381	-91.5672	-43.5897	-214.661	-71.0554	-30.2833	-193.534	-90.0789	-45.0712	-170.377	-111.685	-34.5195	-219.958	-90.5453	-12.057	-200.342	-112.435	-14.8951	-175.335	-116.242	8.37471	-226.45	-102.975	4.18579	-203.948	-115.835	7.52161	-185.103	-109.907	30.2137	-247.811	-58.9072	27.6644	-249.643	-48.1962	59.5476	-226.183	-27.4204	35.2519	
108	0.9	-189.93	-27.9538	49.0642	-168.801	-37.5745	26.2826	-150.424	-45.925	4.85557	-140.114	-59.0952	-10.16	-196.766	-49.2719	-26.3821	-179.911	-67.7315	-44.9641	-155.139	-88.8947	-43.7272	-212.447	-68.0773	-31.038	-191.633	-90.2056	-44.9085	-165.066	-110.837	-33.3639	-218.087	-91.4576	-14.3014	-198.989	-110.956	-15.6383	-175.452	-115.513	9.03606	-225.767	-102.966	4.69935	-201.412	-117.421	8.66495	-183.276	-111.571	26.3755	-245.905	-55.5614	26.8342	-249.961	-46.5776	56.2516	-224.959	-29.7191	34.9551	
109	0.908333	-190.588	-29.3208	46.5881	-165.114	-34.0611	27.2877	-150.786	-46.8015	6.48476	-139.734	-59.9786	-12.6414	-196.863	-52.8621	-26.8574	-180.331	-66.3638	-43.3016	-158.214	-86.0043	-44.3641	-213.808	-67.5438	-26.4152	-192.452	-89.0985	-45.6168	-169.109	-111.417	-34.6331	-218.167	-89.2369	-13.5828	-194.706	-110.592	-14.4037	-176.97	-117.604	7.38223	-225.669	-104.494	3.82364	-200.194	-114.353	6.05446	-182.951	-113.784	29.1474	-246.397	-56.6586	30.0399	-250.813	-45.5762	58.0789	-225.699	-26.9213	37.4205	
110	0.916667	-188.892	-27.3538	50.4351	-164.013	-35.7906	25.4354	-150.217	-47.9229	4.96828	-142.21	-61.4718	-11.6318	-196.217	-51.8351	-26.0563	-178.737	-71.1856	-43.795	-158.112	-87.3161	-45.1833	-211.443	-68.7579	-29.4833	-192.658	-90.7644	-45.2035	-163.091	-113.519	-32.9115	-216.966	-87.8621	-13.8708	-195.711	-109.722	-16.3051	-175.723	-118.636	8.26264	-224.33	-101.574	3.85007	-201.349	-114.995	6.30843	-184.521	-111.821	27.5144	-246.309	-58.0097	29.4761	-251.016	-48.0851	58.3663	-224.842	-26.6141	36.6324	
111	0.925	-189.323	-28.8352	48.7278	-166.475	-36.6723	31.0116	-149.96	-46.8317	7.82	-137.653	-58.7929	-8.90005	-195.31	-51.7544	-26.3274	-179.617	-69.0822	-44.4773	-156.414	-90.8923	-43.4793	-210.706	-67.8769	-30.5359	-193.857	-89.8521	-44.5792	-165.055	-113.995	-33.0201	-217.437	-90.5791	-13.0639	-196.516	-111.729	-16.3535	-175.511	-118.668	7.18348	-227.729	-103.189	5.92312	-203.146	-118.532	5.88058	-182.017	-113.952	32.0654	-243.396	-58.0424	24.1169	-248.607	-47.4574	56.7357	-226.017	-30.2349	37.9689	
112	0.933333	-187.284	-27.0963	50.1494	-164.504	-37.2355	28.1112	-149.373	-47.9233	7.2665	-135.917	-60.5269	-10.0499	-194.748	-50.9284	-25.8887	-174.659	-68.4318	-45.6569	-153.634	-91.7891	-43.5681	-214.154	-70.8192	-26.7657	-192.082	-86.7883	-45.6645	-165.265	-110.52	-35.4602	-216.108	-91.1122	-14.367	-195.675	-111.11	-17.0813	-173.896	-117.461	5.7075	-223.073	-104.498	3.76152	-202.465	-115.794	5.22752	-182.943	-111.018	30.2105	-244.639	-58.8607	28.7482	-247.708	-48.8035	54.8271	-225.403	-29.5373	34.9808	
113	0.941667	-185.572	-27.956	46.6367	-164.776	-36.1851	29.8824	-146.558	-47.2412	6.86074	-135.395	-61.0624	-11.3762	-194.372	-51.6388	-25.0023	-174.778	-70.6319	-46.0133	-152.879	-91.1001	-44.1523	-211.619	-73.784	-30.8679	-190.904	-87.4964	-45.8748	-162.395	-115.034	-31.8523	-214.435	-90.8939	-15.4752	-193.591	-109.556	-17.3133	-171.593	-118.786	9.2215	-224.454	-104	5.89896	-198.677	-119.317	8.40488	-181.533	-112.328	32.9232	-241.433	-56.6919	24.9015	-249.624	-50.681	56.7727	-223.165	-28.9178	37.4401	
114	0.95	-187.495	-29.1272	51.0328	-163.564	-38.4158	25.9079	-147.012	-48.6362	4.16057	-137.478	-62.443	-9.23337	-193.164	-50.5348	-26.1287	-173.286	-68.8907	-44.9138	-156.32	-89.9552	-44.4487	-208.238	-68.0274	-28.4291	-187.702	-91.8673	-44.8722	-162.366	-109.834	-36.0429	-214.466	-93.2068	-15.0502	-193.833	-109.853	-16.6295	-171.615	-118.066	6.52509	-223.772	-100.87	6.50716	-199.074	-115.965	5.84055	-182.237	-113.482	31.218	-241.55	-58.2474	30.1762	-247.688	-52.3722	54.6417	-224.673	-30.1785	37.9067	
115	0.958333	-186.392	-30.0784	48.5397	-163.94	-36.7048	30.8062	-143.898	-46.6521	4.99571	-135.736	-60.234	-10.0951	-191.763	-49.3228	-24.9585	-171.391	-68.3776	-45.3312	-152.158	-86.0153	-44.3148	-209.487	-70.5958	-28.6978	-188.077	-92.93	-44.3028	-161.693	-109.432	-34.8622	-212.996	-87.3832	-12.0173	-187.473	-111.387	-14.4391	-169.111	-115.315	9.07324	-220.599	-103.817	4.23563	-198.291	-118.012	9.05925	-179.14	-108.724	31.4798	-240.408	-58.6784	27.5917	-245.231	-48.6616	55.3855	-218.791	-27.5466	36.1041	
116	0.966667	-184.538	-28.7223	51.5428	-160.625	-37.1996	26.3042	-142.838	-44.8407	8.09916	-135.361	-60.8553	-11.1501	-190.491	-51.4	-23.4753	-173.987	-67.9432	-43.2228	-149.882	-88.1945	-42.9707	-208.646	-69.7161	-26.8306	-185.574	-88.9237	-45.5768	-160.967	-112.696	-33.0935	-212.109	-89.4507	-11.2997	-185.946	-110.164	-14.2461	-168.357	-117.328	10.7837	-216.949	-102.208	4.61682	-196.418	-118.379	9.13908	-178.486	-111.582	33.6076	-238.201	-54.8274	26.1143	-246.638	-50.2079	55.8801	-219.428	-26.6158	38.2622	
